<svg width="12" height="16" viewBox="0 0 12 16" fill="none" xmlns="http://www.w3.org/2000/svg">
<path d="M0 7.3052V5.35715H8C8.18888 5.22944 8.33335 4.70777 8.53335 4.17207C8.53335 3.42099 8.24611 3.13961 7.67166 2.67855C7.09722 2.21754 6.68 1.98701 5.75335 1.98701C4.92665 1.98701 4.13891 2.15311 3.39002 2.48539C2.64109 2.81762 1.47335 3.61473 1 4.05843V1.13635C1.64665 0.831142 2.74665 0.416637 3.5 0.249966C4.25335 0.0833352 5.05444 0 5.90333 0C7.39002 0 8.61111 0.425865 9.56665 1.2776C10.5222 2.12933 11 3.18398 11 4.44156C11 5.05194 11.1067 4.91127 10.8333 5.35715H12V7.3052H9.16665C8.77554 7.53031 8.18779 7.93075 7.66333 8.15582C6.98556 8.45673 6.48223 8.38528 6 8.60392L12 8.60388V10.5519H3.83335C3.56 10.8701 3.39335 11.1959 3.39335 11.8539C3.39335 12.6309 3.51499 12.7522 4.09166 13.1916C4.66834 13.631 5.18888 14.013 6.32 14.013C7.10665 14.013 7.92611 13.8317 8.77832 13.4692C9.63057 13.1066 10.3289 12.6732 11 12.013V14.7727C10.3111 15.1082 9.78888 15.4264 9.00665 15.6558C8.22446 15.8853 7.27777 16 6.16665 16C5.23112 16 4.45166 15.8809 3.82834 15.6429C3.20501 15.4048 2.64665 15.066 2.15335 14.6266C1.71112 14.2262 1.36834 13.7711 1.12501 13.2614C0.881684 12.7516 0.76 12.2013 0.76 11.6104C0.76 11.1623 0.873347 10.9178 1 10.5519H0V8.60388L2.33335 8.60392C2.92665 8.15369 3.54665 7.82465 4.83335 7.3052H0Z" fill="#434343"/>
</svg>
