<svg width="25" height="27" viewBox="0 0 25 27" fill="none" xmlns="http://www.w3.org/2000/svg">
<path d="M23.006 3.67951C22.9916 3.39778 22.7595 3.17639 22.4772 3.17639H17.9935C16.8929 1.2808 14.8454 0 12.5 0C10.1547 0 8.10715 1.2808 7.0066 3.17639H2.52291C2.24057 3.17639 2.00852 3.39763 1.99404 3.67951L0.853576 26.4442C0.846263 26.5889 0.898982 26.7303 0.998782 26.8353C1.09858 26.9404 1.23754 27 1.38244 27H23.6176C23.7624 27 23.9015 26.9406 24.0013 26.8353C24.1011 26.7303 24.1538 26.5889 24.1465 26.4442L23.006 3.67951ZM17.794 6.35293C17.794 6.64487 17.5568 6.88241 17.2645 6.88241C16.9725 6.88241 16.7351 6.64487 16.7351 6.35293C16.7351 6.061 16.9723 5.82346 17.2645 5.82346C17.5568 5.82346 17.794 6.061 17.794 6.35293ZM12.5 1.0588C14.2267 1.0588 15.7582 1.89346 16.7252 3.17639H8.27491C9.24183 1.89346 10.7734 1.0588 12.5 1.0588ZM7.73537 5.82346C8.02746 5.82346 8.26485 6.061 8.26485 6.35293C8.26485 6.64487 8.02761 6.88241 7.73537 6.88241C7.44313 6.88241 7.2059 6.64487 7.2059 6.35293C7.2059 6.061 7.44313 5.82346 7.73537 5.82346ZM1.93919 25.9412V25.9411L3.02648 4.23519H6.51766C6.28195 4.89874 6.14695 5.60954 6.14695 6.35278C6.14695 7.22858 6.85942 7.94105 7.73522 7.94105C8.61103 7.94105 9.32349 7.22858 9.32349 6.35278C9.32349 5.47698 8.61103 4.76466 7.73522 4.76466C7.63436 4.76466 7.53638 4.77639 7.44054 4.79453C7.49966 4.60285 7.57128 4.41711 7.65096 4.23534H17.349C17.4286 4.41711 17.5001 4.60285 17.5592 4.79453C17.4635 4.77655 17.3654 4.76466 17.2645 4.76466C16.3887 4.76466 15.6763 5.47713 15.6763 6.35293C15.6763 7.22874 16.3887 7.9412 17.2645 7.9412C18.1404 7.9412 18.8528 7.22874 18.8528 6.35293C18.8528 5.60954 18.7178 4.8989 18.4821 4.23534H21.9733L23.0606 25.9412H1.93919Z" fill="#434343"/>
<path d="M16.2059 13.2352H8.79412C8.50158 13.2352 8.26465 13.4723 8.26465 13.7646C8.26465 14.057 8.50143 14.2941 8.79412 14.2941H16.2059C16.4984 14.2941 16.7353 14.057 16.7353 13.7646C16.7353 13.4723 16.4984 13.2352 16.2059 13.2352Z" fill="#434343"/>
<path d="M16.2059 15.3529H8.79412C8.50158 15.3529 8.26465 15.59 8.26465 15.8824C8.26465 16.1748 8.50143 16.4119 8.79412 16.4119H16.2059C16.4984 16.4119 16.7353 16.1748 16.7353 15.8824C16.7353 15.59 16.4984 15.3529 16.2059 15.3529Z" fill="#434343"/>
<path d="M16.2059 17.4705H8.79412C8.50158 17.4705 8.26465 17.7076 8.26465 18C8.26465 18.2924 8.50143 18.5295 8.79412 18.5295H16.2059C16.4984 18.5295 16.7353 18.2924 16.7353 18C16.7352 17.7076 16.4984 17.4705 16.2059 17.4705Z" fill="#434343"/>
<path d="M1.5 26L2.5 4H22.5L23.5 26H1.5Z" stroke="#434343"/>
</svg>
