<svg width="96" height="92" viewBox="0 0 96 92" fill="none" xmlns="http://www.w3.org/2000/svg">
<path d="M66.5179 64.2521C70.0605 63.8818 72.7481 60.799 72.6259 57.099C72.504 53.3995 69.4496 50.4396 65.7847 50.4396H65.5406C61.7531 50.563 58.8214 53.7693 58.9436 57.5923C59.0659 59.4422 59.7986 61.0454 60.8981 62.1553C56.7446 70.4182 50.3921 76.461 40.8634 81.5173C34.3886 84.9704 27.6697 86.2037 20.9509 85.3406C15.4534 84.6005 11.1776 82.1343 8.48962 78.0641C4.58062 72.0214 4.21425 65.485 7.51275 58.949C9.834 54.2626 13.4985 50.8095 15.8197 49.0829C15.3311 47.4797 14.598 44.7667 14.2316 42.7937C-3.48225 55.7427 -1.64963 73.2547 3.72562 81.5173C7.75687 87.6838 15.942 91.5068 24.9821 91.5068C27.4252 91.5068 29.8684 91.2599 32.3119 90.6437C47.949 87.5604 59.799 78.1876 66.5179 64.2521V64.2521ZM88.0189 48.9599C78.7342 37.9839 65.052 31.9411 49.4149 31.9411H47.4604C46.3609 29.7213 44.0396 28.2412 41.4742 28.2412H41.2297C37.443 28.3646 34.5112 31.5709 34.6331 35.3942C34.7554 39.0938 37.8094 42.0536 41.4742 42.0536H41.7184C44.406 41.9302 46.7272 40.2037 47.7045 37.8605H49.9035C59.1881 37.8605 67.9837 40.5735 75.9247 45.8766C82.0327 49.9464 86.4307 55.2494 88.8739 61.662C90.9506 66.8417 90.8284 71.898 88.6294 76.2146C85.209 82.7506 79.4674 86.3271 71.8931 86.3271C67.0065 86.3271 62.3644 84.847 59.9209 83.7371C58.5772 84.9704 56.1337 86.9434 54.4234 88.177C59.6767 90.6433 65.052 92 70.1827 92C81.9105 92 90.5842 85.4636 93.8827 78.9276C97.4254 71.7746 97.1809 59.4422 88.0189 48.9599V48.9599ZM25.9594 66.3481C26.0816 70.048 29.1356 73.0075 32.8005 73.0075H33.045C36.8321 72.8845 39.7639 69.6778 39.6416 65.8548C39.5197 62.1549 36.4654 59.1954 32.8005 59.1954H32.5564C32.3119 59.1954 31.9451 59.1954 31.7014 59.3185C26.6925 50.9325 24.6157 41.8068 25.3489 31.9407C25.8371 24.5413 28.2806 18.1283 32.5564 12.8252C36.099 8.26219 42.9401 6.04238 47.5826 5.91935C60.5317 5.67254 66.0289 21.9512 66.3956 28.4876C67.9837 28.8575 70.6714 29.7209 72.504 30.3376C71.0377 10.3593 58.8214 0 47.094 0C36.099 0 25.9594 8.01613 21.9277 19.8552C16.3084 35.6407 19.9732 50.8095 26.8144 62.7719C26.2039 63.635 25.8371 64.9917 25.9594 66.3485V66.3481Z" fill="#FFCB45"/>
</svg>
